<svg id="Capa_1" enable-background="new 0 0 512 512" height="512" viewBox="0 0 512 512" width="512" xmlns="http://www.w3.org/2000/svg"><g><path d="m246.549 148.683-21.819-38.683c-36.365-64.473-110.3-97.966-182.748-82.784l-10.556 2.212c-3.376.707-3.62 5.435-.334 6.486l4.734 1.514c62.844 20.096 117.251 60.463 154.705 114.782l56.018 81.242z" fill="#5ea570"/><path d="m265.451 148.683 21.819-38.683c36.365-64.473 110.3-97.966 182.748-82.784l10.556 2.212c3.376.707 3.62 5.435.334 6.486l-4.734 1.514c-62.844 20.096-117.251 60.463-154.705 114.782l-56.018 81.242z" fill="#5ea570"/><g><path d="m226.112 241.871-21.55-44.795c-35.917-74.66-113.917-109.978-177.1-88.866l-11.025 3.684c-3.007 1.005-3.075 5.233-.103 6.334l6.278 2.326c56.747 21.027 107.214 66.392 143.502 128.995l54.274 93.633z" fill="#5ea570"/></g><path d="m246.966 191.762-29.946-25.485c-49.912-42.477-127.985-20.005-183.557 14.737l-6.861 4.289c-2.925 1.828-1.523 6.35 1.923 6.203l2.94-.125c58.365-2.491 122.308-13.285 170.023 20.419l71.366 50.41z" fill="#69af81"/><g><path d="m285.888 241.871 21.55-44.795c35.917-74.66 113.917-109.978 177.1-88.866l11.025 3.684c3.007 1.005 3.075 5.233.103 6.334l-6.279 2.326c-56.747 21.027-107.214 66.392-143.502 128.995l-54.274 93.633z" fill="#5ea570"/></g><path d="m265.034 192.828 29.946-25.485c49.911-42.476 127.984-20.005 183.557 14.738l6.861 4.289c2.925 1.828 1.523 6.35-1.923 6.203l-2.94-.125c-58.365-2.491-122.308-13.285-170.023 20.419l-71.366 50.41z" fill="#69af81"/><path d="m252.68 2.839c-16.415 104.531-27.813 201.27-24.418 275.035h55.477c3.395-73.766-8.003-170.505-24.418-275.035-.595-3.785-6.047-3.785-6.641 0z" fill="#69af81"/><path d="m176.032 311.769-43.922-9.573-23.267-66.122c-1.241-3.526-.476-7.447 1.999-10.248s6.271-4.044 9.923-3.248l25.866 5.638z" fill="#78c2a4"/><path d="m335.968 311.769 43.922-9.573 23.267-66.122c1.241-3.526.476-7.447-1.999-10.248s-6.271-4.044-9.923-3.248l-25.866 5.638z" fill="#78c2a4"/><path d="m96.865 220.813c-20.895 8.578-90.479 44.504-86.891 141.466.104 2.822 3.962 3.548 5.097.962 11.911-27.137 49.873-98.666 131.561-135.026l-38.47-8.385c-3.782-.824-7.717-.487-11.297.983z" fill="#95d6a4"/><path d="m415.135 220.813c20.896 8.578 90.479 44.504 86.891 141.466-.104 2.822-3.962 3.548-5.097.962-11.911-27.137-49.873-98.666-131.561-135.026l38.47-8.385c3.782-.824 7.717-.487 11.297.983z" fill="#95d6a4"/><path d="m151.309 478.855c-61.758-45.716-77.779-101.684-62.363-178.824 2.573-12.877 13.879-22.156 27.011-22.156h280.086c13.132 0 24.438 9.279 27.011 22.156 15.416 77.141-.606 133.108-62.363 178.824l-19.763 22.31-164.895-5.807z" fill="#c6865c"/><path d="m396.043 277.874h-8.116c23.133 88.763 10.282 150.999-57.238 200.98h30.002c61.758-45.716 77.779-101.683 62.363-178.824-2.573-12.877-13.879-22.156-27.011-22.156z" fill="#c17d4f"/><g><path d="m264.698 277.874h-44.953l-30.488-41.203c-2.316-3.13-2.671-7.297-.919-10.774s5.314-5.67 9.207-5.67h24.497z" fill="#78c2a4"/><path d="m247.302 277.874h44.953l30.488-41.203c2.316-3.13 2.671-7.297.919-10.774s-5.314-5.67-9.207-5.67h-24.497z" fill="#78c2a4"/><g fill="#95d6a4"><path d="m182.669 220.227c-3.87 0-7.643 1.168-10.828 3.366-18.589 12.831-78.926 62.752-54.771 156.726.703 2.735 4.626 2.623 5.185-.145 5.858-29.051 27.717-107.024 99.788-159.946h-39.374z"/><path d="m329.331 220.227c3.87 0 7.643 1.168 10.828 3.366 18.589 12.831 78.926 62.752 54.771 156.726-.703 2.735-4.626 2.623-5.185-.145-5.858-29.051-27.717-107.024-99.788-159.946h39.374z"/></g></g><path d="m108.986 491.288c-.769-1.877-1.407-3.847-1.912-5.903-.834-3.391 1.74-6.671 5.232-6.671h287.389c3.492 0 6.066 3.28 5.232 6.671-.506 2.056-1.143 4.026-1.912 5.903-5.198 12.68-17.843 20.712-31.547 20.712h-230.936c-13.704 0-26.349-8.032-31.546-20.712z" fill="#9d6b6b"/><path d="m399.695 478.714h-25.282c3.492 0 6.066 3.28 5.232 6.671-.506 2.056-1.143 4.026-1.912 5.903-5.198 12.68-17.843 20.712-31.546 20.712h25.282c13.703 0 26.348-8.032 31.546-20.712.77-1.877 1.407-3.847 1.913-5.903.832-3.391-1.742-6.671-5.233-6.671z" fill="#8b5e5e"/></g></svg>