<svg width="142" height="138" viewBox="0 0 142 138" fill="none" xmlns="http://www.w3.org/2000/svg">
<g filter="url(#filter0_d)">
<ellipse cx="71" cy="65" rx="67" ry="65" fill="#BF8B85"/>
</g>
<path d="M48.1477 35.5342L41.283 68.4255L36.6313 67.4546L42.6427 38.6513L35.2187 37.1018L36.0719 33.0139L48.1477 35.5342Z" fill="#136F63"/>
<path d="M58.001 83.773C62.7604 81.7429 66.972 81.2654 70.6359 82.3405C74.2758 83.3718 77.0905 85.7084 79.08 89.3504C80.5182 91.9832 81.1664 94.7342 81.0245 97.6035C80.8587 100.429 79.8069 103.197 77.8693 105.908C75.9515 108.55 73.1058 110.903 69.3322 112.964C66.0412 114.762 62.6182 116.005 59.0631 116.693C55.4841 117.338 52.2498 117.31 49.3603 116.61L49.5476 109.756C51.9422 110.385 54.6199 110.489 57.5805 110.068C60.5172 109.604 63.3677 108.616 66.1322 107.106C69.5548 105.236 71.814 103.062 72.9098 100.583C74.0495 98.0807 73.9243 95.5568 72.534 93.0118C71.1437 90.4667 69.1217 89.0075 66.4678 88.6341C63.8139 88.2606 60.5782 89.1166 56.7607 91.202L53.0748 93.2155L50.5579 88.6081L54.3759 68.0629L32.1947 80.1798L29.0666 74.4535L59.4753 57.8422L61.9202 62.318L58.001 83.773Z" fill="#EAB464"/>
<path d="M105.017 68.5421L92.9075 64.9374L88.2457 80.5982L79.4137 77.9692L84.0755 62.3083L48.6564 51.765L50.5536 45.3914L95.5635 13.3928L105.397 16.32L62.1867 47.2683L86.6795 54.5592L90.7993 40.7193L99.3581 43.2671L95.2384 57.1069L107.348 60.7117L105.017 68.5421Z" fill="#118AB2"/>
<path d="M107.606 106.003L106.953 111.182L77.0101 107.409L77.5202 103.361L96.5489 89.1286C98.8627 87.4043 100.467 85.8728 101.361 84.5342C102.26 83.1558 102.803 81.7324 102.988 80.264C103.263 78.0813 102.701 76.2971 101.304 74.9115C99.9507 73.4912 97.8454 72.601 94.988 72.2409C90.3844 71.6608 86.6425 72.7213 83.7622 75.4224L80.1568 71.4001C82.034 69.6208 84.3522 68.3406 87.1115 67.5594C89.9105 66.7833 92.9372 66.6003 96.1914 67.0103C100.557 67.5604 103.897 69.0497 106.211 71.4781C108.531 73.8669 109.466 76.8471 109.016 80.4189C108.736 82.6413 107.994 84.6846 106.792 86.5489C105.589 88.4132 103.499 90.4478 100.52 92.6526L86.235 103.31L107.606 106.003Z" fill="#3B3D54"/>
<defs>
<filter id="filter0_d" x="0" y="0" width="142" height="138" filterUnits="userSpaceOnUse" color-interpolation-filters="sRGB">
<feFlood flood-opacity="0" result="BackgroundImageFix"/>
<feColorMatrix in="SourceAlpha" type="matrix" values="0 0 0 0 0 0 0 0 0 0 0 0 0 0 0 0 0 0 127 0" result="hardAlpha"/>
<feOffset dy="4"/>
<feGaussianBlur stdDeviation="2"/>
<feComposite in2="hardAlpha" operator="out"/>
<feColorMatrix type="matrix" values="0 0 0 0 0 0 0 0 0 0 0 0 0 0 0 0 0 0 0.25 0"/>
<feBlend mode="normal" in2="BackgroundImageFix" result="effect1_dropShadow"/>
<feBlend mode="normal" in="SourceGraphic" in2="effect1_dropShadow" result="shape"/>
</filter>
</defs>
</svg>
