<svg width="151" height="144" viewBox="0 0 151 144" fill="none" xmlns="http://www.w3.org/2000/svg">
<path d="M75.5 0C85.4148 0 95.2325 1.86234 104.393 5.48067C113.553 9.09901 121.876 14.4025 128.887 21.0883C135.897 27.7741 141.459 35.7113 145.253 44.4468C149.047 53.1822 151 62.5448 151 72H124.585C124.585 65.8529 123.315 59.766 120.849 54.0868C118.382 48.4076 114.766 43.2473 110.208 38.9007C105.65 34.554 100.239 31.106 94.284 28.7536C88.3288 26.4012 81.9459 25.1905 75.5 25.1905V0Z" fill="#EAB464"/>
<path d="M151 72C151 81.4552 149.047 90.8178 145.253 99.5532C141.459 108.289 135.897 116.226 128.887 122.912C121.876 129.598 113.553 134.901 104.393 138.519C95.2325 142.138 85.4148 144 75.5 144V118.81C81.9459 118.81 88.3288 117.599 94.284 115.246C100.239 112.894 105.65 109.446 110.208 105.099C114.766 100.753 118.382 95.5924 120.849 89.9132C123.315 84.234 124.585 78.1471 124.585 72H151Z" fill="#3B3D54"/>
<path d="M75.5 144C65.5852 144 55.7675 142.138 46.6074 138.519C37.4473 134.901 29.1243 129.598 22.1134 122.912C15.1026 116.226 9.54132 108.289 5.7471 99.5532C1.95287 90.8178 0 81.4552 0 72H26.415C26.415 78.1471 27.6846 84.234 30.1514 89.9132C32.6181 95.5924 36.2337 100.753 40.7917 105.099C45.3496 109.446 50.7607 112.894 56.716 115.246C62.6712 117.599 69.0541 118.81 75.5 118.81V144Z" fill="#136F63"/>
<path d="M0 72C0 62.5448 1.95287 53.1822 5.7471 44.4468C9.54132 35.7113 15.1026 27.7741 22.1134 21.0883C29.1243 14.4025 37.4473 9.09901 46.6074 5.48067C55.7675 1.86234 65.5852 0 75.5 0V25.1905C69.0541 25.1905 62.6712 26.4012 56.716 28.7536C50.7607 31.106 45.3496 34.554 40.7917 38.9007C36.2337 43.2473 32.6181 48.4076 30.1514 54.0868C27.6846 59.766 26.415 65.8529 26.415 72H0Z" fill="#009FB7"/>
<g filter="url(#filter0_d)">
<line x1="50" y1="89" x2="101" y2="89" stroke="black" stroke-width="4"/>
</g>
<g filter="url(#filter1_d)">
<line x1="50" y1="58" x2="101" y2="58" stroke="black" stroke-width="4"/>
</g>
<g filter="url(#filter2_d)">
<line x1="50" y1="75" x2="101" y2="75" stroke="black" stroke-width="4"/>
</g>
<defs>
<filter id="filter0_d" x="46" y="87" width="59" height="12" filterUnits="userSpaceOnUse" color-interpolation-filters="sRGB">
<feFlood flood-opacity="0" result="BackgroundImageFix"/>
<feColorMatrix in="SourceAlpha" type="matrix" values="0 0 0 0 0 0 0 0 0 0 0 0 0 0 0 0 0 0 127 0" result="hardAlpha"/>
<feOffset dy="4"/>
<feGaussianBlur stdDeviation="2"/>
<feComposite in2="hardAlpha" operator="out"/>
<feColorMatrix type="matrix" values="0 0 0 0 0 0 0 0 0 0 0 0 0 0 0 0 0 0 0.25 0"/>
<feBlend mode="normal" in2="BackgroundImageFix" result="effect1_dropShadow"/>
<feBlend mode="normal" in="SourceGraphic" in2="effect1_dropShadow" result="shape"/>
</filter>
<filter id="filter1_d" x="46" y="56" width="59" height="12" filterUnits="userSpaceOnUse" color-interpolation-filters="sRGB">
<feFlood flood-opacity="0" result="BackgroundImageFix"/>
<feColorMatrix in="SourceAlpha" type="matrix" values="0 0 0 0 0 0 0 0 0 0 0 0 0 0 0 0 0 0 127 0" result="hardAlpha"/>
<feOffset dy="4"/>
<feGaussianBlur stdDeviation="2"/>
<feComposite in2="hardAlpha" operator="out"/>
<feColorMatrix type="matrix" values="0 0 0 0 0 0 0 0 0 0 0 0 0 0 0 0 0 0 0.25 0"/>
<feBlend mode="normal" in2="BackgroundImageFix" result="effect1_dropShadow"/>
<feBlend mode="normal" in="SourceGraphic" in2="effect1_dropShadow" result="shape"/>
</filter>
<filter id="filter2_d" x="46" y="73" width="59" height="12" filterUnits="userSpaceOnUse" color-interpolation-filters="sRGB">
<feFlood flood-opacity="0" result="BackgroundImageFix"/>
<feColorMatrix in="SourceAlpha" type="matrix" values="0 0 0 0 0 0 0 0 0 0 0 0 0 0 0 0 0 0 127 0" result="hardAlpha"/>
<feOffset dy="4"/>
<feGaussianBlur stdDeviation="2"/>
<feComposite in2="hardAlpha" operator="out"/>
<feColorMatrix type="matrix" values="0 0 0 0 0 0 0 0 0 0 0 0 0 0 0 0 0 0 0.25 0"/>
<feBlend mode="normal" in2="BackgroundImageFix" result="effect1_dropShadow"/>
<feBlend mode="normal" in="SourceGraphic" in2="effect1_dropShadow" result="shape"/>
</filter>
</defs>
</svg>
