<svg id="Layer_1" enable-background="new 0 0 512 512" height="512" viewBox="0 0 512 512" width="512" xmlns="http://www.w3.org/2000/svg"><g><ellipse cx="315.895" cy="134.409" fill="#97da7b" rx="54.267" ry="33.344" transform="matrix(.78 -.626 .626 .78 -14.567 227.416)"/><path d="m358.218 100.442c-7.487-9.339-22.058-11.096-37.759-6.037 3.046 1.441 5.679 3.442 7.759 6.037 11.519 14.368 1.908 41.223-21.466 59.982-8.182 6.567-16.964 11.263-25.42 13.988 13.822 6.542 36.267 1.384 55.42-13.988 23.374-18.758 32.985-45.613 21.466-59.982z" fill="#80d261"/><ellipse cx="178.289" cy="158.758" fill="#97da7b" rx="33.344" ry="54.267" transform="matrix(.276 -.961 .961 .276 -23.513 286.3)"/><path d="m187.465 126.701c-13.449-3.857-26.603-4.244-37.323-1.761 2.423.477 4.867 1.057 7.323 1.761 28.809 8.263 48.056 29.314 42.988 47.019-2.702 9.439-11.772 16.02-24.017 18.855 26.004 5.116 49.381-2.661 54.017-18.855 5.067-17.705-14.179-38.756-42.988-47.019z" fill="#80d261"/><ellipse cx="262.912" cy="51.447" fill="#97da7b" rx="47.152" ry="28.972" transform="matrix(.46 -.888 .888 .46 96.261 261.202)"/><path d="m284.595 9.576c-7.343-3.797-16.557-2.209-25.402 3.392 9.847 9.905 9.984 31.455-.546 51.788-5.788 11.178-13.74 19.93-22.015 25.17 1.352 1.359 2.882 2.505 4.598 3.392 14.213 7.35 35.443-5.438 47.417-28.563s10.161-47.829-4.052-55.179z" fill="#80d261"/><path d="m378 310h-244c-9.389 0-17-7.611-17-17 0-9.389 7.611-17 17-17h244c9.389 0 17 7.611 17 17 0 9.389-7.611 17-17 17z" fill="#dc8758"/><path d="m378 276h-30c9.389 0 17 7.611 17 17 0 9.389-7.611 17-17 17h30c9.389 0 17-7.611 17-17 0-9.389-7.611-17-17-17z" fill="#d77f4a"/><g><path d="m317.15 504.5h-122.3c-18.425 0-33.95-13.757-36.166-32.049l-19.684-162.451h234l-19.684 162.451c-2.216 18.292-17.741 32.049-36.166 32.049z" fill="#e19974"/><path d="m343 310-19.684 162.451c-2.216 18.292-17.741 32.049-36.166 32.049h30c18.425 0 33.95-13.757 36.167-32.049l19.683-162.451z" fill="#dc8758"/></g><path d="m402.5 292.985c0-13.511-10.99-24.502-24.5-24.502h-103.277c1.154-37.443-4.102-65.772-9.161-83.882l7.53-6.399c5.759 4.258 13.189 6.48 21.761 6.48 2.194 0 4.465-.146 6.8-.439 13.29-1.673 27.422-8.062 39.793-17.991 27.011-21.679 36.947-52.659 22.623-70.528-7.265-9.061-19.317-13.04-33.932-11.198-13.29 1.672-27.422 8.062-39.793 17.991-23.928 19.205-34.442 45.702-26.575 63.924l-3.236 2.75c-1.736-4.543-3.014-7.18-3.31-7.773-13.238-27.399-12.34-48.525-10.603-58.755 1.129.138 2.269.212 3.422.212 16.059 0 34.143-13.222 45.265-34.7 6.42-12.399 9.479-25.72 8.613-37.506-.963-13.121-6.604-22.99-15.881-27.789-13.206-6.832-30.973-1.269-45.26 14.172-2.813 3.04-2.629 7.786.411 10.599 3.038 2.812 7.783 2.63 10.599-.411 9.429-10.188 20.422-14.623 27.359-11.035 6.032 3.119 7.483 11.09 7.813 15.564.655 8.927-1.887 19.683-6.975 29.508-10.745 20.753-28.287 30.021-37.313 25.351-8.028-4.152-10.256-18.585-5.297-34.319 1.245-3.951-.948-8.164-4.898-9.409-3.953-1.243-8.163.948-9.408 4.899-6.457 20.49-3.367 39.082 7.525 48.617-2.48 11.173-5.307 37.563 11.147 71.583.016.031.038.078.054.109.022.044.303.621.761 1.671l-5.801-1.842c.072-19.782-19.835-40.042-49.225-48.471-15.249-4.374-30.753-4.803-43.655-1.206-14.192 3.955-23.768 12.283-26.963 23.447-6.304 22.018 14.838 46.746 48.13 56.296 8.405 2.411 16.887 3.623 24.97 3.623 6.579 0 12.895-.804 18.685-2.417 11.202-3.122 19.511-8.977 24.094-16.792l15.919 5.055c4.812 16.888 10.171 44.413 9.006 81.012h-45.127c-4.143 0-7.5 3.358-7.5 7.501s3.357 7.501 7.5 7.501h163.41c5.238 0 9.5 4.262 9.5 9.501s-4.262 9.501-9.5 9.501h-244c-5.238 0-9.5-4.262-9.5-9.501s4.262-9.501 9.5-9.501h45.103c4.143 0 7.5-3.358 7.5-7.501s-3.357-7.501-7.5-7.501h-45.103c-13.51 0-24.5 10.991-24.5 24.502 0 12.954 10.106 23.586 22.847 24.44l18.892 155.926c2.67 22.034 21.419 38.649 43.612 38.649h122.299c22.193 0 40.942-16.615 43.612-38.65l.674-5.566c.498-4.113-2.432-7.849-6.544-8.347-4.106-.498-7.85 2.432-8.347 6.544l-.674 5.565c-1.759 14.511-14.106 25.453-28.722 25.453h-122.298c-14.615 0-26.963-10.942-28.722-25.453l-18.665-154.059h217.072l-14.123 116.568c-.498 4.113 2.431 7.85 6.543 8.348 4.103.504 7.85-2.43 8.348-6.543l14.35-118.434c12.74-.856 22.846-11.488 22.846-24.442zm-102.767-178.77c10.238-8.217 21.701-13.477 32.277-14.807 1.377-.174 3.046-.313 4.854-.313 5.224 0 11.613 1.16 15.501 6.01 8.764 10.932-.536 33.576-20.309 49.445-10.238 8.218-21.701 13.477-32.277 14.808-3.731.472-9.602.683-14.591-1.437l18.332-15.58c3.156-2.682 3.541-7.416.858-10.572-2.682-3.156-7.415-3.542-10.571-.858l-17.528 14.896c-1.452-11.901 7.65-28.907 23.454-41.592zm-93.061 70.543c-10.269 2.861-22.874 2.444-35.491-1.175-24.37-6.991-41.701-24.277-37.846-37.748 0 0 0-.001.001-.001 2.302-8.044 11.369-11.676 16.569-13.125 4.504-1.256 9.456-1.88 14.664-1.88 6.664 0 13.744 1.023 20.828 3.055 19.351 5.551 34.25 17.592 37.641 29.062l-15.038-4.775c-3.947-1.248-8.165.931-9.418 4.879s.931 8.166 4.879 9.419l16.257 5.161c-3.785 3.984-9.375 6.105-13.046 7.128z"/></g></svg>