<svg width="30" height="30" viewBox="0 0 30 30" fill="none" xmlns="http://www.w3.org/2000/svg">
<path d="M18.75 27.5H11.25V25H18.75V27.5ZM18.75 23.75H11.25L10.9713 21.25C10.8213 20.4231 10.5733 19.617 10.2325 18.8488C9.79 18.2238 9.32875 17.69 8.8825 17.1687C7.24264 15.6316 6.29331 13.4972 6.25 11.25C6.25 6.41751 10.1675 2.5 15 2.5C19.8325 2.5 23.75 6.41751 23.75 11.25C23.6991 13.4835 22.7571 15.6039 21.1337 17.1388L21.1125 17.1637C20.6675 17.685 20.2075 18.225 19.7738 18.8438C19.4333 19.614 19.1845 20.4216 19.0325 21.25L18.75 23.75ZM15 5C11.5499 5.00413 8.75413 7.79993 8.75 11.25C8.75 13.18 9.555 14.1163 10.7725 15.535C11.235 16.075 11.76 16.685 12.2725 17.3987C12.8945 18.6073 13.3194 19.9074 13.5312 21.25H16.47C16.6873 19.9113 17.1116 18.6145 17.7275 17.4062C18.2275 16.6925 18.7513 16.0787 19.2125 15.5387L19.2313 15.5163C20.4462 14.0913 21.25 13.15 21.25 11.25C21.2459 7.79993 18.4501 5.00413 15 5Z" fill="#F46036" fill-opacity="0.72"/>
</svg>
