<svg width="26" height="29" viewBox="0 0 26 29" fill="none" xmlns="http://www.w3.org/2000/svg">
<g filter="url(#filter0_d)">
<path d="M4 9.00001V15H8L13 20V4.00001L8 9.00001H4ZM11 8.83001V15.17L8.83 13H6V11H8.83L11 8.83001ZM17.5 12C17.5 10.23 16.48 8.71001 15 7.97001V16.02C16.48 15.29 17.5 13.77 17.5 12ZM15 3.23001V5.29001C17.89 6.15001 20 8.83001 20 12C20 15.17 17.89 17.85 15 18.71V20.77C19.01 19.86 22 16.28 22 12C22 7.72001 19.01 4.14001 15 3.23001Z" fill="#F46036" fill-opacity="0.72"/>
</g>
<defs>
<filter id="filter0_d" x="-3" y="0" width="32" height="32" filterUnits="userSpaceOnUse" color-interpolation-filters="sRGB">
<feFlood flood-opacity="0" result="BackgroundImageFix"/>
<feColorMatrix in="SourceAlpha" type="matrix" values="0 0 0 0 0 0 0 0 0 0 0 0 0 0 0 0 0 0 127 0" result="hardAlpha"/>
<feOffset dy="4"/>
<feGaussianBlur stdDeviation="2"/>
<feComposite in2="hardAlpha" operator="out"/>
<feColorMatrix type="matrix" values="0 0 0 0 0 0 0 0 0 0 0 0 0 0 0 0 0 0 0.25 0"/>
<feBlend mode="normal" in2="BackgroundImageFix" result="effect1_dropShadow"/>
<feBlend mode="normal" in="SourceGraphic" in2="effect1_dropShadow" result="shape"/>
</filter>
</defs>
</svg>
