<svg width="100" height="100" viewBox="0 0 100 100" fill="none" xmlns="http://www.w3.org/2000/svg">
<path d="M62.5 91.6667H37.5V83.3333H62.5V91.6667ZM62.5 79.1666H37.5L36.5708 70.8333C36.071 68.0769 35.2443 65.3899 34.1083 62.8292C32.6333 60.7458 31.0958 58.9666 29.6083 57.2291C24.1421 52.1054 20.9777 44.9907 20.8333 37.5C20.8333 21.3917 33.8917 8.33331 50 8.33331C66.1083 8.33331 79.1667 21.3917 79.1667 37.5C78.9972 44.945 75.857 52.0129 70.4458 57.1292L70.375 57.2125C68.8917 58.95 67.3583 60.75 65.9125 62.8125C64.7776 65.3801 63.9483 68.0722 63.4417 70.8333L62.5 79.1666ZM50 16.6666C38.4998 16.6804 29.1804 25.9998 29.1667 37.5C29.1667 43.9333 31.85 47.0541 35.9083 51.7833C37.45 53.5833 39.2 55.6166 40.9083 57.9958C42.9815 62.0243 44.398 66.358 45.1042 70.8333H54.9C55.6244 66.371 57.0385 62.0485 59.0917 58.0208C60.7583 55.6417 62.5042 53.5958 64.0417 51.7958L64.1042 51.7208C68.1542 46.9708 70.8333 43.8333 70.8333 37.5C70.8196 25.9998 61.5002 16.6804 50 16.6666Z" fill="white"/>
</svg>
