<svg id="Capa_1" enable-background="new 0 0 512 512" height="512" viewBox="0 0 512 512" width="512" xmlns="http://www.w3.org/2000/svg"><g><g><path d="m227.973 251.191-20.208-42.006c-33.68-70.011-106.824-103.13-166.073-83.333l-18.818 6.288 14.271 5.288c53.213 19.717 100.538 62.258 134.566 120.963l50.895 87.803z" fill="#5ea570"/></g><path d="m247.529 201.202-28.082-23.898c-46.804-39.831-120.015-18.759-172.128 13.82l-16.552 10.348 14.678-.626c54.731-2.336 114.692-12.458 159.437 19.148l66.922 47.271z" fill="#69af81"/><path d="m241.869 246.118v-49.733l-22.421-19.081c-16.979-14.449-37.434-20.879-59.095-21.657 10.56 10.945 20.264 22.785 28.986 35.434l24.105 34.959z" fill="#5ea570"/><path d="m247.138 163.806-20.46-36.275c-34.1-60.459-103.432-91.866-171.369-77.629l-21.578 4.522 15.805 5.054c58.931 18.845 109.951 56.699 145.072 107.635l52.53 76.183z" fill="#69af81"/><path d="m220.799 117.929c-3.292 26.382-5.958 51.792-7.778 75.888l34.116 49.478v-79.49l-20.46-36.275c-1.854-3.288-3.82-6.486-5.878-9.601z" fill="#5ea570"/><g><path d="m284.028 251.191 20.208-42.006c33.68-70.011 106.824-103.13 166.073-83.333l18.818 6.288-14.271 5.288c-53.213 19.717-100.538 62.258-134.566 120.963l-50.895 87.803z" fill="#5ea570"/></g><path d="m264.472 201.202 28.082-23.898c46.804-39.831 120.015-18.759 172.128 13.82l16.552 10.348-14.678-.626c-54.731-2.336-114.692-12.458-159.437 19.148l-66.922 47.271z" fill="#69af81"/><path d="m270.133 246.118v-49.733l22.421-19.081c16.979-14.449 37.434-20.879 59.095-21.657-10.56 10.945-20.264 22.785-28.986 35.434l-24.105 34.959z" fill="#5ea570"/><path d="m264.863 163.806 20.46-36.275c34.1-60.459 103.432-91.866 171.369-77.629l21.578 4.522-15.805 5.054c-58.931 18.845-109.951 56.699-145.072 107.635l-52.53 76.183z" fill="#69af81"/><path d="m291.202 117.929c3.292 26.382 5.958 51.792 7.778 75.888l-34.116 49.478v-79.49l20.46-36.275c1.855-3.288 3.82-6.486 5.878-9.601z" fill="#5ea570"/><path d="m256.001 7.5c-17.032 105.47-29.406 203.704-26.011 277.452h52.022c3.394-73.747-8.979-171.982-26.011-277.452z" fill="#69af81"/><path d="m181.012 316.737-41.187-8.977-27.57-78.352 41.187 8.977z" fill="#78c2a4"/><path d="m330.989 316.737 41.187-8.977 27.571-78.352-41.188 8.977z" fill="#78c2a4"/><path d="m112.255 229.408s-97.112 29.67-86.237 145.71c0 0 31.691-94.121 127.424-136.733z" fill="#95d6a4"/><path d="m399.747 229.408s97.112 29.67 86.237 145.71c0 0-31.691-94.121-127.424-136.733z" fill="#95d6a4"/><path d="m157.828 473.419c-57.912-42.869-72.936-95.352-58.48-167.689 2.413-12.076 13.015-20.777 25.329-20.777h262.646c12.314 0 22.916 8.701 25.329 20.777 14.456 72.338-.568 124.82-58.48 167.689l-18.533 20.92-154.628-5.446z" fill="#c6865c"/><path d="m387.324 284.953h-7.61c21.692 83.236 9.642 141.597-53.674 188.466h28.134c57.912-42.869 72.936-95.352 58.48-167.689-2.414-12.076-13.016-20.777-25.33-20.777z" fill="#c17d4f"/><g><path d="m264.157 284.953h-42.154l-40-54.058h42.154z" fill="#78c2a4"/><path d="m247.844 284.953h42.155l40-54.058h-42.155z" fill="#78c2a4"/><g fill="#95d6a4"><path d="m182.003 230.895s-88.566 49.671-53.228 160.733c0 0 10.92-98.711 95.382-160.733z"/><path d="m329.999 230.895s88.566 49.671 53.228 160.733c0 0-10.92-98.711-95.382-160.733z"/></g></g><path d="m118.141 485.078c-.722-1.76-1.319-3.607-1.793-5.536-.782-3.18 1.632-6.256 4.906-6.256h269.494c3.274 0 5.688 3.076 4.906 6.256-.474 1.928-1.072 3.775-1.793 5.536-4.874 11.89-16.731 19.422-29.581 19.422h-216.558c-12.85 0-24.708-7.532-29.581-19.422z" fill="#9d6b6b"/><path d="m390.748 473.287h-23.708c3.274 0 5.688 3.076 4.906 6.256-.474 1.928-1.072 3.775-1.793 5.536-4.874 11.89-16.731 19.422-29.581 19.422h23.707c12.85 0 24.708-7.532 29.581-19.422.722-1.76 1.319-3.607 1.793-5.536.783-3.18-1.631-6.256-4.905-6.256z" fill="#8b5e5e"/><path d="m491.733 139.173c2.982-1.105 4.944-3.973 4.893-7.154s-2.104-5.983-5.122-6.992l-18.818-6.288c-42.63-14.245-92.901-2.68-131.54 30.174-.101.012-.202.024-.303.037 32.728-38.159 75.869-66.966 123.908-82.329l15.805-5.054c3.243-1.037 5.381-4.129 5.206-7.529-.176-3.401-2.619-6.256-5.952-6.955l-21.578-4.522c-14.446-3.027-29.228-4.125-43.929-3.267-4.135.242-7.291 3.79-7.05 7.925s3.805 7.292 7.925 7.05c11.353-.665 22.755-.044 33.982 1.843-108.789 39.804-147.874 125.403-161.526 140.948-1.125-15.644-2.649-32.297-4.6-50.204 4.675-5.731 27.807-68.85 103.571-88.157 4.015-1.022 6.439-5.105 5.416-9.12-1.022-4.014-5.111-6.442-9.119-5.416-43.067 10.974-80.393 39.119-102.804 77.41-4.142-33.718-9.655-71.692-16.693-115.27-.587-3.632-3.724-6.303-7.405-6.303s-6.817 2.671-7.404 6.304c-7.038 43.583-12.55 81.554-16.692 115.268-17.515-29.969-43.441-53.344-75.128-67.698-32.483-14.715-68.103-18.628-103.005-11.312l-21.578 4.521c-3.333.699-5.776 3.554-5.952 6.955-.175 3.4 1.963 6.492 5.206 7.529l15.805 5.054c48.075 15.374 91.244 44.212 123.981 82.413-.09-.011-.179-.021-.269-.032-38.654-32.922-88.976-44.524-131.647-30.264l-18.818 6.288c-3.018 1.008-5.07 3.811-5.122 6.992s1.91 6.049 4.894 7.154l14.271 5.288c14.812 5.488 29.276 12.868 43.137 22-11.464 5.085-22.97 11.198-34.333 18.303l-16.552 10.348c-2.888 1.805-4.196 5.328-3.188 8.581 1.009 3.253 4.107 5.42 7.482 5.272l14.679-.626c8.54-.364 17.335-.925 25.84-1.467 17.179-1.095 34.578-2.204 51.495-1.839 6.85 7.306 13.431 15.112 19.692 23.355l-28.94-6.308c-1.257-.273-2.561-.22-3.789.155-1.413.432-34.908 10.942-61.324 43.09-2.63 3.2-2.167 7.927 1.033 10.557 3.202 2.629 7.926 2.168 10.557-1.033 20.207-24.593 45.602-35.165 52.388-37.664l18.437 4.019c-40.251 22.65-67.268 53.723-83.499 77.271-5.629 8.168-10.323 15.907-14.175 22.85 1.578-15.421 5.474-29.674 11.661-42.612 1.787-3.737.207-8.215-3.529-10.002-3.738-1.79-8.216-.207-10.002 3.529-11.592 24.236-15.985 52.356-13.059 83.579.33 3.523 3.08 6.334 6.596 6.745 3.485.417 6.834-1.674 7.977-5.045.078-.229 7.983-23.225 27.169-50.947 12.258-17.712 31.028-39.963 57.438-59.005l3.54 10.061c-14.364 1.481-26.399 12.224-29.277 26.631-14.012 70.115-.229 120.807 44.658 161.527h-15.398c-3.881 0-7.48 1.753-9.877 4.809-2.396 3.056-3.238 6.969-2.312 10.74.562 2.285 1.281 4.501 2.137 6.586 5.992 14.629 20.327 24.08 36.518 24.08h171.222c4.143 0 7.5-3.357 7.5-7.5s-3.357-7.5-7.5-7.5h-171.222c-9.923 0-19.021-5.935-22.642-14.769-.193-.471-.377-.953-.549-1.445 14.15.001 13.235.143 262.938 0-.173.492-.355.976-.549 1.446-3.62 8.834-12.719 14.768-22.64 14.768h-15.349c-4.143 0-7.5 3.357-7.5 7.5s3.357 7.5 7.5 7.5h15.349c16.189 0 30.525-9.451 36.521-24.077.855-2.087 1.574-4.303 2.138-6.592.926-3.768.083-7.681-2.312-10.736-2.396-3.056-5.996-4.809-9.877-4.809h-15.4c44.886-40.72 58.669-91.412 44.658-161.528-2.88-14.406-14.915-25.149-29.278-26.63l3.54-10.061c26.411 19.042 45.181 41.293 57.439 59.005 19.186 27.723 27.091 50.718 27.167 50.94 1.119 3.324 4.411 5.463 7.973 5.057 3.519-.409 6.271-3.224 6.603-6.75 5.897-62.929-19.218-101.344-41.324-122.49-23.932-22.892-49.129-30.769-50.189-31.093-1.229-.375-2.532-.429-3.788-.155l-28.942 6.308c6.261-8.242 12.842-16.049 19.693-23.355 16.917-.365 34.316.743 51.496 1.838 28.563 1.82 24.17 1.301 40.519 2.093 3.387.148 6.476-2.019 7.482-5.272 1.009-3.252-.3-6.776-3.188-8.581l-16.552-10.348c-11.185-6.992-22.74-13.129-34.367-18.28 13.872-9.143 28.349-16.531 43.172-22.023zm-127.736 135.159c16.31 24.468 22.715 52.22 19.17 82.803-2.29-7.631-5.239-16.234-9.019-25.458-10.844-26.465-30.624-62.578-65.128-93.281h18.871c5.199 3.309 22.25 15.146 36.106 35.936zm-96.06 3.121-2.607-3.523 24.191-32.325c5.008 3.962 9.723 8.057 14.162 12.244l-17.466 23.604zm-42.154 0-17.472-23.613c4.448-4.191 9.165-8.282 14.167-12.236l24.192 32.327-2.607 3.523h-18.28zm-77.78-3.121c13.856-20.789 30.907-32.626 36.105-35.937h18.871c-34.504 30.703-54.284 66.816-65.127 93.281-3.779 9.224-6.729 17.827-9.019 25.458-3.544-30.583 2.862-58.335 19.17-82.802zm49.628-9.707 9.492 12.828h-20.481c3.431-4.322 7.089-8.609 10.989-12.828zm116.729.013c3.909 4.231 7.564 8.515 10.98 12.814h-20.462zm-58.36-208.389c8.566 57.401 16.821 122.102 18.684 179.822l-18.684 25.25-18.684-25.25c1.868-57.8 10.137-122.548 18.684-179.822zm-193.163-.14c29.833-5.037 60.046-1.122 87.75 11.428 55.91 25.328 72.685 71.627 78.381 79.319-1.951 17.907-3.475 34.559-4.6 50.203-13.643-15.534-52.52-101.068-161.531-140.95zm-17.504 76.444c31.828-10.159 68.524-4.01 99.873 16.002-16.193 1.177-33.351 4.96-50.816 11.21-15.631-11.251-32.095-20.383-49.057-27.212zm25.319 59.349c-3.712.236-7.48.477-11.25.702 45.473-26.326 91.913-35.746 126.112-25.381 2.667 3.715.992 1.382 37.386 54.133-.033.682-.065 1.361-.096 2.039h-.104l-13.49-9.528c-39.988-28.246-90.096-25.053-138.558-21.965zm125.831 31.493h-14.481c-1.285 0-2.548.33-3.669.958-.457.256-5.807 3.301-13.276 9.332-6.497-9.573-13.402-18.688-20.652-27.267 18.727 2.162 36.435 7.08 52.078 16.977zm-47.377 25.301c-5.678 6.204-10.79 12.862-15.166 19.746l-3.34-9.491c5.845-3.622 12.01-7.062 18.506-10.255zm256.193 58.503c14.33 71.713-1.654 119.302-53.449 158.588h-191.7c-51.795-39.287-67.779-86.876-53.449-158.588 1.515-7.581 7.636-13.317 15.078-14.515-9.545 25.134-13.62 58.893-.152 101.219.997 3.136 3.907 5.226 7.142 5.226 3.829 0 7.04-2.876 7.459-6.676.077-.687 5.997-50.173 39.456-100h160.636c10.733 15.937 18.396 31.432 23.757 44.443 12.842 31.172 15.669 55.324 15.695 55.557.42 3.805 3.634 6.676 7.459 6.676 3.234 0 6.145-2.09 7.142-5.226 13.467-42.325 9.393-76.084-.153-101.219 7.442 1.198 13.564 6.935 15.079 14.515zm-27.239-38.758c-.657-1.033-1.316-2.039-1.977-3.02-4.268-6.333-8.772-11.901-13.188-16.725 6.496 3.194 12.661 6.633 18.504 10.255zm21.225-31.256c5.784 2.127 24.965 10.062 42.931 27.423 21.146 20.434 33.313 46.185 36.363 76.82-3.862-6.968-8.576-14.746-14.232-22.953-16.231-23.549-43.249-54.621-83.5-77.271zm-52.341-3.499c-7.469-6.031-12.821-9.076-13.277-9.332-1.121-.628-2.384-.958-3.669-.958h-14.48c15.643-9.896 33.351-14.814 52.076-16.977-7.249 8.579-14.154 17.695-20.65 27.267zm94.406-41.784c-48.463-3.09-98.569-6.282-138.559 21.965l-13.489 9.528h-.105c-.031-.678-.063-1.357-.096-2.039 36.376-52.726 34.715-50.414 37.386-54.134 34.173-10.364 80.668-.921 126.111 25.381-3.77-.225-7.536-.465-11.248-.701zm-23.763-32.12c-7.039-2.53-14.052-4.677-20.973-6.41-10.259-2.57-20.153-4.211-29.65-4.924 31.311-19.927 67.932-26.035 99.704-15.894-16.968 6.831-33.443 15.97-49.081 27.228z"/></g></svg>