<svg width="96" height="36" viewBox="0 0 96 36" fill="none" xmlns="http://www.w3.org/2000/svg">
<path d="M36.48 0.839998C37.2267 0.946665 37.7333 1.17333 38 1.52C38.2933 1.86667 38.44 2.32 38.44 2.88C38.44 4.72 37.4533 5.57333 35.48 5.44L34.08 5.32C32.5067 5.18666 30.9333 5.08 29.36 5C27.8133 4.92 26.1867 4.88 24.48 4.88H22.68C22.36 8.82666 22.0267 12.4267 21.68 15.68L28.56 15.56C29.5467 15.56 30.2 15.7333 30.52 16.08C30.8667 16.4267 31.04 16.8933 31.04 17.48C31.04 18.3867 30.7733 19.1067 30.24 19.64C29.7067 20.1467 28.9467 20.4 27.96 20.4H21.12L20.88 22.12C20.32 26.52 19.12 29.6533 17.28 31.52C15.4667 33.3867 12.96 34.32 9.76 34.32C7.94667 34.32 6.28 33.9333 4.76 33.16C3.24 32.36 2.12 31.4 1.4 30.28C1.10667 29.8267 0.96 29.28 0.96 28.64C0.96 28 1.10667 27.44 1.4 26.96C1.72 26.48 2.10667 26.24 2.56 26.24C2.88 26.24 3.18667 26.3467 3.48 26.56C3.8 26.7733 4.2 27.1867 4.68 27.8C5.96 29.48 7.54667 30.32 9.44 30.32C10.96 30.32 12.2267 29.7067 13.24 28.48C14.28 27.2267 14.9467 25.2667 15.24 22.6L15.48 20.4H13.56C12.9467 20.4 12.4133 20.2267 11.96 19.88C11.5333 19.5333 11.32 19.04 11.32 18.4C11.32 17.5733 11.5333 16.9467 11.96 16.52C12.3867 16.0667 13.0133 15.84 13.84 15.84C14.5867 15.84 15.32 15.8267 16.04 15.8C16.36 12.8667 16.7067 9.30667 17.08 5.12C14.2 5.38667 12.1733 5.85333 11 6.52C9.82667 7.18666 9.24 8.17333 9.24 9.48C9.24 10.3867 9.50667 11.2533 10.04 12.08C10.2 12.32 10.28 12.56 10.28 12.8C10.28 13.28 10.0133 13.7067 9.48 14.08C8.94667 14.4267 8.34667 14.6 7.68 14.6C6.96 14.6 6.34667 14.3867 5.84 13.96C5.52 13.6933 5.21333 13.1467 4.92 12.32C4.62667 11.4933 4.48 10.5733 4.48 9.56C4.48 6.25333 6.17333 3.85333 9.56 2.36C12.9733 0.866665 17.9467 0.119998 24.48 0.119998C29.0133 0.119998 33.0133 0.359998 36.48 0.839998ZM51.4059 21.72C51.7526 21.72 52.0193 21.8933 52.2059 22.24C52.3926 22.5867 52.4859 23.0267 52.4859 23.56C52.4859 24.84 52.0993 25.6 51.3259 25.84C49.7259 26.4 47.9659 26.72 46.0459 26.8C45.5393 29.04 44.5393 30.84 43.0459 32.2C41.5526 33.5333 39.8593 34.2 37.9659 34.2C36.3659 34.2 34.9926 33.8133 33.8459 33.04C32.7259 32.2667 31.8726 31.24 31.2859 29.96C30.6993 28.68 30.4059 27.2933 30.4059 25.8C30.4059 23.7733 30.7926 21.9733 31.5659 20.4C32.3393 18.8 33.4059 17.56 34.7659 16.68C36.1259 15.7733 37.6326 15.32 39.2859 15.32C41.3126 15.32 42.9393 16.0267 44.1659 17.44C45.4193 18.8267 46.1526 20.5467 46.3659 22.6C47.6193 22.52 49.1126 22.2533 50.8459 21.8C51.0593 21.7467 51.2459 21.72 51.4059 21.72ZM38.2859 29.96C39.1393 29.96 39.8726 29.6133 40.4859 28.92C41.1259 28.2267 41.5526 27.2267 41.7659 25.92C40.9393 25.36 40.2993 24.6267 39.8459 23.72C39.4193 22.8133 39.2059 21.8533 39.2059 20.84C39.2059 20.4133 39.2459 19.9867 39.3259 19.56H39.1259C38.0593 19.56 37.1659 20.08 36.4459 21.12C35.7526 22.1333 35.4059 23.5733 35.4059 25.44C35.4059 26.9067 35.6859 28.0267 36.2459 28.8C36.8326 29.5733 37.5126 29.96 38.2859 29.96ZM56.6928 34.2C54.0795 34.2 52.0395 33.4667 50.5728 32C49.1328 30.5067 48.4128 28.5467 48.4128 26.12C48.4128 23.96 48.8395 22.0667 49.6928 20.44C50.5461 18.8133 51.6528 17.56 53.0128 16.68C54.3728 15.8 55.7995 15.36 57.2928 15.36C58.7595 15.36 59.8928 15.8 60.6928 16.68C61.5195 17.5333 61.9328 18.64 61.9328 20C61.9328 21.12 61.6795 22.0667 61.1728 22.84C60.6928 23.6133 60.0528 24 59.2528 24C58.7461 24 58.3328 23.88 58.0128 23.64C57.7195 23.4 57.5728 23.0667 57.5728 22.64C57.5728 22.4533 57.5995 22.24 57.6528 22C57.7061 21.76 57.7461 21.5867 57.7728 21.48C57.9061 21.08 57.9728 20.7067 57.9728 20.36C57.9728 20.0133 57.8795 19.7467 57.6928 19.56C57.5328 19.3733 57.2928 19.28 56.9728 19.28C56.3595 19.28 55.7861 19.56 55.2528 20.12C54.7195 20.6533 54.2928 21.3867 53.9728 22.32C53.6528 23.2533 53.4928 24.28 53.4928 25.4C53.4928 28.4933 54.8395 30.04 57.5328 30.04C58.6261 30.04 59.7995 29.68 61.0528 28.96C62.3328 28.2133 63.5861 27.1067 64.8128 25.64C65.1328 25.2667 65.4928 25.08 65.8928 25.08C66.2395 25.08 66.5061 25.24 66.6928 25.56C66.9061 25.88 67.0128 26.32 67.0128 26.88C67.0128 27.8933 66.7595 28.72 66.2528 29.36C64.9995 30.9067 63.4928 32.1067 61.7328 32.96C59.9995 33.7867 58.3195 34.2 56.6928 34.2ZM67.8594 34.2C66.6594 34.2 65.6727 33.6533 64.8994 32.56C64.1527 31.44 63.7794 30.0533 63.7794 28.4C63.7794 26.4 63.9127 24.5733 64.1794 22.92C64.446 21.24 64.886 19.4667 65.4994 17.6C65.766 16.8 66.1394 16.2267 66.6194 15.88C67.0994 15.5333 67.8594 15.36 68.8994 15.36C69.486 15.36 69.886 15.4533 70.0994 15.64C70.3394 15.8267 70.4594 16.1067 70.4594 16.48C70.4594 16.6933 70.3127 17.4133 70.0194 18.64C69.7527 19.6267 69.5394 20.52 69.3794 21.32C68.846 24.12 68.5794 25.9867 68.5794 26.92C68.5794 27.48 68.646 27.88 68.7794 28.12C68.9127 28.3333 69.126 28.44 69.4194 28.44C69.8194 28.44 70.3127 28.04 70.8994 27.24C71.5127 26.44 72.1527 25.2267 72.8194 23.6C73.5127 21.9733 74.1794 19.9733 74.8194 17.6C75.0327 16.8 75.3527 16.2267 75.7794 15.88C76.2327 15.5333 76.8994 15.36 77.7794 15.36C78.3927 15.36 78.8194 15.44 79.0594 15.6C79.2994 15.7333 79.4194 16 79.4194 16.4C79.4194 17.0667 79.086 18.8933 78.4194 21.88C77.6727 25.2933 77.2994 27.4 77.2994 28.2C77.2994 28.7067 77.406 29.1067 77.6194 29.4C77.8327 29.6667 78.1127 29.8 78.4594 29.8C78.9927 29.8 79.6194 29.48 80.3394 28.84C81.086 28.1733 82.0727 27.1067 83.2994 25.64C83.6194 25.2667 83.9794 25.08 84.3794 25.08C84.726 25.08 84.9927 25.24 85.1794 25.56C85.3927 25.88 85.4994 26.32 85.4994 26.88C85.4994 27.9467 85.246 28.7733 84.7394 29.36C83.5927 30.7733 82.3527 31.9333 81.0194 32.84C79.7127 33.7467 78.2194 34.2 76.5394 34.2C75.2594 34.2 74.3127 33.7067 73.6994 32.72C73.1127 31.7333 72.8194 30.3467 72.8194 28.56C72.366 30.3733 71.686 31.7733 70.7794 32.76C69.8727 33.72 68.8994 34.2 67.8594 34.2ZM89.6959 35.08C88.3093 35.08 87.2426 34.76 86.4959 34.12C85.7759 33.48 85.4159 32.76 85.4159 31.96C85.4159 31.2667 85.6693 30.6667 86.1759 30.16C86.6826 29.6533 87.4293 29.4 88.4159 29.4C88.7626 29.4 89.1626 29.44 89.6159 29.52C90.0959 29.5733 90.4559 29.6133 90.6959 29.64C90.6693 28.9467 90.5093 28.2933 90.2159 27.68C89.9493 27.0667 89.6026 26.48 89.1759 25.92C88.7493 25.3333 88.3493 24.8267 87.9759 24.4C87.1493 25.9733 86.3226 27.28 85.4959 28.32C84.6959 29.36 83.8159 30.3467 82.8559 31.28C82.3759 31.76 81.8693 32 81.3359 32C80.9093 32 80.5626 31.8533 80.2959 31.56C80.0293 31.24 79.8959 30.8533 79.8959 30.4C79.8959 29.8667 80.0826 29.3733 80.4559 28.92L80.9759 28.28C82.4426 26.4667 83.5493 24.9733 84.2959 23.8C84.7759 23.0267 85.2559 22.1067 85.7359 21.04C86.2426 19.9733 86.8959 18.52 87.6959 16.68C88.2026 15.5067 89.2559 14.92 90.8559 14.92C91.6026 14.92 92.1226 14.9867 92.4159 15.12C92.7093 15.2533 92.8559 15.4667 92.8559 15.76C92.8559 15.92 92.8026 16.1733 92.6959 16.52C92.5893 16.8667 92.4426 17.2133 92.2559 17.56C91.7759 18.52 91.5359 19.3333 91.5359 20C91.5359 20.4 91.6693 20.84 91.9359 21.32C92.2293 21.8 92.6693 22.4 93.2559 23.12C94.1093 24.24 94.7493 25.2 95.1759 26C95.6293 26.7733 95.8559 27.6267 95.8559 28.56C95.8559 29.68 95.5893 30.7467 95.0559 31.76C94.5493 32.7467 93.8293 33.5467 92.8959 34.16C91.9626 34.7733 90.8959 35.08 89.6959 35.08Z" fill="#118AB2"/>
</svg>
