<svg width="40" height="40" viewBox="0 0 40 40" fill="none" xmlns="http://www.w3.org/2000/svg">
<path d="M25 36.6666H15V33.3333H25V36.6666ZM25 31.6666H15L14.6283 28.3333C14.4284 27.2307 14.0977 26.1559 13.6433 25.1316C13.0533 24.2983 12.4383 23.5866 11.8433 22.8916C9.65687 20.8422 8.3911 17.9963 8.33334 15C8.33334 8.55666 13.5567 3.33331 20 3.33331C26.4433 3.33331 31.6667 8.55666 31.6667 15C31.5989 17.978 30.3428 20.8052 28.1783 22.8516L28.15 22.885C27.5567 23.58 26.9433 24.3 26.365 25.125C25.911 26.152 25.5793 27.2288 25.3767 28.3333L25 31.6666ZM20 6.66665C15.3999 6.67216 11.6722 10.3999 11.6667 15C11.6667 17.5733 12.74 18.8216 14.3633 20.7133C14.98 21.4333 15.68 22.2466 16.3633 23.1983C17.1926 24.8097 17.7592 26.5432 18.0417 28.3333H21.96C22.2498 26.5484 22.8154 24.8194 23.6367 23.2083C24.3033 22.2566 25.0017 21.4383 25.6167 20.7183L25.6417 20.6883C27.2617 18.7883 28.3333 17.5333 28.3333 15C28.3278 10.3999 24.6001 6.67216 20 6.66665Z" fill="#118AB2"/>
</svg>
