<svg width="114" height="114" viewBox="0 0 114 114" fill="none" xmlns="http://www.w3.org/2000/svg">
<circle cx="57" cy="57" r="57" fill="#C4C4C4"/>
<path d="M114 57C114 64.4853 112.526 71.8974 109.661 78.813C106.797 85.7285 102.598 92.0121 97.3051 97.3051C92.0121 102.598 85.7285 106.797 78.813 109.661C71.8974 112.526 64.4853 114 57 114L57 57H114Z" fill="#BF8B85"/>
<path d="M0 57C0 49.5147 1.47435 42.1026 4.33887 35.187C7.20338 28.2715 11.402 21.9879 16.6949 16.6949C21.9879 11.402 28.2715 7.20338 35.187 4.33887C42.1026 1.47435 49.5147 0 57 0L57 57L0 57Z" fill="#136F63"/>
<path d="M57 114C49.5147 114 42.1026 112.526 35.187 109.661C28.2715 106.797 21.9879 102.598 16.6949 97.3051C11.402 92.0121 7.20338 85.7285 4.33887 78.813C1.47435 71.8974 0 64.4853 0 57L57 57L57 114Z" fill="#3B3D54"/>
<path d="M57 0C64.4853 0 71.8974 1.47435 78.813 4.33887C85.7285 7.20338 92.0121 11.402 97.3051 16.6949C102.598 21.9879 106.797 28.2715 109.661 35.187C112.526 42.1026 114 49.5147 114 57L57 57L57 0Z" fill="#3581B8"/>
</svg>
