<svg id="Capa_1" enable-background="new 0 0 512 512" height="512" viewBox="0 0 512 512" width="512" xmlns="http://www.w3.org/2000/svg"><g><path d="m274.4 264.503c-.122-1.355-3.169-33.693-20.224-77.666-15.68-40.427-46.772-98.96-105.852-148.226-16.463-13.729-41.614-5.71-47.129 14.97-19.822 74.328-11.439 140.074-.917 182.139 11.445 45.754 27.617 73.924 28.3 75.101 2.74 4.722 7.74 7.474 12.975 7.473 3.315 0-4.875 2.285 122.447-38.156 6.704-2.129 11.027-8.63 10.4-15.635z" fill="#69ba74"/><path d="m410.805 53.582c-5.523-20.711-30.692-28.679-47.129-14.97-59.08 49.266-90.172 107.798-105.852 148.226-17.055 43.973-20.103 76.311-20.224 77.666-.627 7.005 3.696 13.505 10.399 15.635l117.907 37.451c1.501.477 3.03.706 4.54.705 5.235 0 10.235-2.752 12.975-7.473.683-1.177 16.854-29.347 28.3-75.101 10.523-42.066 18.906-107.812-.916-182.139z" fill="#55956d"/><path d="m256 0 18.46 109-18.46 169.76h-61.86c-7.03 0-13.12-4.89-14.64-11.76-.13-.58-1.54-7.1-2.83-18.24-1.63-14.1-3.05-35.61-1.41-61.9 2.71-43.28 14.62-108.48 56.02-173.32 5.41-8.48 14.65-13.54 24.72-13.54z" fill="#93db79"/><path d="m335.33 248.76c-1.29 11.14-2.7 17.66-2.83 18.24-1.52 6.87-7.61 11.76-14.64 11.76h-61.86v-278.76c10.07 0 19.31 5.06 24.73 13.55 41.39 64.83 53.3 130.03 56.01 173.31 1.64 26.29.22 47.8-1.41 61.9z" fill="#69ba74"/><path d="m256 327.83 20.502 92.085-20.502 92.085h-111.14c-12.26 0-22.62-8.77-24.65-20.86-.04-.22-.07-.45-.1-.67l-16.12-132.64-1.6-13.19c-.52-4.26.81-8.54 3.66-11.76 2.85-3.21 6.94-5.05 11.23-5.05z" fill="#895140"/><path d="m409.62 344.6-1.57 13.23-15.78 132.58c-.03.22-.06.45-.1.67-2 12.12-12.38 20.92-24.66 20.92h-111.51v-184.17h138.72c4.29 0 8.37 1.83 11.22 5.04 2.84 3.21 4.18 7.48 3.68 11.73z" fill="#5b362a"/><path d="m256 248.76 20.502 68.905-20.502 40.165h-160.1c-13.79 0-25-11.21-25-25v-59.08c0-13.78 11.21-24.99 25-24.99z" fill="#e1bb78"/><path d="m441.1 273.75v59.08c0 13.79-11.21 25-25 25h-160.1v-109.07h160.1c13.79 0 25 11.21 25 24.99z" fill="#c9885b"/></g></svg>